<svg width="730" height="344" viewBox="0 0 730 344" fill="none" xmlns="http://www.w3.org/2000/svg">
<rect width="730" height="344" fill="#FBE8D3"/>
<path d="M265.477 175.141L266.297 168.852H266.625L271.055 152.172H274.938V159.062H273.352L268.922 175.141H265.477ZM253.5 191V152.172H258.75V191H253.5ZM263.891 175.141L259.461 159.062H257.875V152.172H261.758L266.188 168.852H266.406L266.953 175.141H263.891ZM274.062 191V152.172H279.312V191H274.062ZM298.234 191V163.656H304.031V191H298.234ZM287.188 191V186.242H298.781V191H287.188ZM303.484 191V186.242H312.945V191H303.484ZM288.828 166.828V162.016H304.031V166.828H288.828ZM300.805 157.422C299.693 157.422 298.736 157.03 297.934 156.246C297.15 155.444 296.758 154.487 296.758 153.375C296.758 152.245 297.15 151.288 297.934 150.504C298.736 149.72 299.693 149.328 300.805 149.328C301.935 149.328 302.892 149.72 303.676 150.504C304.46 151.288 304.852 152.245 304.852 153.375C304.852 154.487 304.46 155.444 303.676 156.246C302.892 157.03 301.935 157.422 300.805 157.422ZM338.047 191V172.133C338.047 170.383 337.591 169.034 336.68 168.086C335.768 167.138 334.492 166.664 332.852 166.664C328.294 166.664 326.016 169.344 326.016 174.703L324.32 167.266H326.562C326.727 165.315 327.438 163.866 328.695 162.918C329.953 161.952 331.794 161.469 334.219 161.469C337.281 161.469 339.651 162.398 341.328 164.258C343.005 166.117 343.844 168.742 343.844 172.133V191H338.047ZM320.219 191V162.016H325.469L326.016 168.141V191H320.219ZM360.797 191.547C359.484 191.547 358.19 191.492 356.914 191.383C355.638 191.292 354.344 191.164 353.031 191L355.273 185.695C356.24 186.151 357.306 186.424 358.473 186.516C359.639 186.589 360.797 186.625 361.945 186.625C365.427 186.625 368.116 185.577 370.012 183.48C371.926 181.384 372.883 178.422 372.883 174.594C372.883 171.969 372.299 169.945 371.133 168.523C369.984 167.102 368.344 166.391 366.211 166.391C361.289 166.391 358.828 169.161 358.828 174.703L357.133 167.266H359.375C359.648 163.401 362.018 161.469 366.484 161.469C370.349 161.469 373.339 162.608 375.453 164.887C377.568 167.165 378.625 170.401 378.625 174.594C378.625 179.971 377.066 184.146 373.949 187.117C370.85 190.07 366.466 191.547 360.797 191.547ZM353.031 191V149.984H358.828V190.508L353.031 191ZM396.672 191V163.656H402.469V191H396.672ZM385.625 191V186.242H397.219V191H385.625ZM401.922 191V186.242H411.383V191H401.922ZM387.266 166.828V162.016H402.469V166.828H387.266ZM399.242 157.422C398.13 157.422 397.173 157.03 396.371 156.246C395.587 155.444 395.195 154.487 395.195 153.375C395.195 152.245 395.587 151.288 396.371 150.504C397.173 149.72 398.13 149.328 399.242 149.328C400.372 149.328 401.329 149.72 402.113 150.504C402.897 151.288 403.289 152.245 403.289 153.375C403.289 154.487 402.897 155.444 402.113 156.246C401.329 157.03 400.372 157.422 399.242 157.422ZM428.5 178.531L426.805 169.453H429.047C429.375 164.13 432.036 161.469 437.031 161.469C440.021 161.469 442.19 162.326 443.539 164.039C444.888 165.753 445.562 168.523 445.562 172.352H439.82C439.82 170.237 439.501 168.715 438.863 167.785C438.243 166.855 437.232 166.391 435.828 166.391C433.367 166.391 431.526 167.448 430.305 169.562C429.102 171.659 428.5 174.648 428.5 178.531ZM416.25 191V186.242H435.609V191H416.25ZM422.703 191V162.016H427.406L428.5 170.328V191H422.703ZM417.344 166.773V162.016H427.023L427.57 166.773H417.344ZM461.039 191.547C457.375 191.547 454.531 190.28 452.508 187.746C450.503 185.194 449.5 181.539 449.5 176.781C449.5 171.914 450.512 168.15 452.535 165.488C454.559 162.809 457.411 161.469 461.094 161.469C463.427 161.469 465.223 161.952 466.48 162.918C467.757 163.866 468.513 165.315 468.75 167.266H470.992L469.297 174.703C469.297 169.161 466.836 166.391 461.914 166.391C459.781 166.391 458.132 167.293 456.965 169.098C455.816 170.902 455.242 173.464 455.242 176.781C455.242 183.344 457.484 186.625 461.969 186.625C466.854 186.625 469.297 184.984 469.297 181.703V178.531L471.266 186.516H468.75C468.568 188.174 467.784 189.432 466.398 190.289C465.013 191.128 463.227 191.547 461.039 191.547ZM469.898 191.273L469.297 185.586V149.984H475.094V191L469.898 191.273Z" fill="#433422"/>
</svg>
